<mxfile host="app.diagrams.net" modified="2023-07-21T08:05:43.961Z" agent="Mozilla/5.0 (Macintosh; Intel Mac OS X 10_15_7) AppleWebKit/537.36 (KHTML, like Gecko) Chrome/115.0.0.0 Safari/537.36" etag="-hAEWPRltYL0ggheotlg" version="21.6.5" type="device">
  <diagram name="Page-1" id="jrvZ2hrHTo-maLj6nP1z">
    <mxGraphModel dx="1194" dy="680" grid="1" gridSize="10" guides="1" tooltips="1" connect="1" arrows="1" fold="1" page="1" pageScale="1" pageWidth="850" pageHeight="1100" background="#000000" math="0" shadow="0">
      <root>
        <mxCell id="0" />
        <mxCell id="1" parent="0" />
        <mxCell id="mbKQi5RCTEhMUGyDIt2u-1" value="" style="rounded=1;whiteSpace=wrap;html=1;fillColor=#ffe6cc;strokeColor=#d79b00;" vertex="1" parent="1">
          <mxGeometry x="80" y="80" width="80" height="230" as="geometry" />
        </mxCell>
        <mxCell id="mbKQi5RCTEhMUGyDIt2u-2" value="" style="rounded=1;whiteSpace=wrap;html=1;fillColor=#f8cecc;strokeColor=#b85450;" vertex="1" parent="1">
          <mxGeometry x="200" y="80" width="80" height="230" as="geometry" />
        </mxCell>
        <mxCell id="mbKQi5RCTEhMUGyDIt2u-3" value="" style="rounded=1;whiteSpace=wrap;html=1;fillColor=#dae8fc;strokeColor=#6c8ebf;" vertex="1" parent="1">
          <mxGeometry x="320" y="80" width="80" height="230" as="geometry" />
        </mxCell>
        <mxCell id="mbKQi5RCTEhMUGyDIt2u-4" value="" style="rounded=1;whiteSpace=wrap;html=1;fillColor=#d5e8d4;strokeColor=#82b366;" vertex="1" parent="1">
          <mxGeometry x="480" y="80" width="80" height="230" as="geometry" />
        </mxCell>
        <mxCell id="mbKQi5RCTEhMUGyDIt2u-6" value="Staging&lt;br&gt;Area" style="text;html=1;align=center;verticalAlign=middle;resizable=0;points=[];autosize=1;strokeColor=none;fillColor=none;fontColor=#FFFFFF;" vertex="1" parent="1">
          <mxGeometry x="210" y="35" width="60" height="40" as="geometry" />
        </mxCell>
        <mxCell id="mbKQi5RCTEhMUGyDIt2u-7" value="Local&lt;br&gt;Repo&lt;br&gt;" style="text;html=1;align=center;verticalAlign=middle;resizable=0;points=[];autosize=1;strokeColor=none;fillColor=none;fontColor=#FFFFFF;" vertex="1" parent="1">
          <mxGeometry x="335" y="35" width="50" height="40" as="geometry" />
        </mxCell>
        <mxCell id="mbKQi5RCTEhMUGyDIt2u-8" value="Remote&lt;br&gt;Repo" style="text;html=1;align=center;verticalAlign=middle;resizable=0;points=[];autosize=1;strokeColor=none;fillColor=none;fontColor=#FFFFFF;" vertex="1" parent="1">
          <mxGeometry x="485" y="35" width="70" height="40" as="geometry" />
        </mxCell>
        <mxCell id="mbKQi5RCTEhMUGyDIt2u-28" value="" style="group" vertex="1" connectable="0" parent="1">
          <mxGeometry x="160" y="120" width="240" as="geometry" />
        </mxCell>
        <mxCell id="mbKQi5RCTEhMUGyDIt2u-10" value="" style="shape=flexArrow;endArrow=classic;html=1;rounded=0;fillColor=#1A3300;width=22.5;endSize=7.25;strokeColor=none;labelBackgroundColor=#660000;" edge="1" parent="mbKQi5RCTEhMUGyDIt2u-28">
          <mxGeometry width="50" height="50" relative="1" as="geometry">
            <mxPoint as="sourcePoint" />
            <mxPoint x="80" as="targetPoint" />
          </mxGeometry>
        </mxCell>
        <mxCell id="mbKQi5RCTEhMUGyDIt2u-11" value="git add" style="edgeLabel;html=1;align=center;verticalAlign=middle;resizable=0;points=[];fontColor=#FFFFFF;labelBackgroundColor=#1A3300;labelPosition=center;verticalLabelPosition=middle;labelBorderColor=none;" vertex="1" connectable="0" parent="mbKQi5RCTEhMUGyDIt2u-10">
          <mxGeometry relative="1" as="geometry">
            <mxPoint as="offset" />
          </mxGeometry>
        </mxCell>
        <mxCell id="mbKQi5RCTEhMUGyDIt2u-16" value="" style="shape=flexArrow;endArrow=classic;html=1;rounded=0;fillColor=#1A3300;width=22.5;endSize=7.25;strokeColor=none;entryX=0.5;entryY=0.174;entryDx=0;entryDy=0;entryPerimeter=0;" edge="1" parent="mbKQi5RCTEhMUGyDIt2u-28" target="mbKQi5RCTEhMUGyDIt2u-3">
          <mxGeometry width="50" height="50" relative="1" as="geometry">
            <mxPoint x="120" as="sourcePoint" />
            <mxPoint x="180" as="targetPoint" />
          </mxGeometry>
        </mxCell>
        <mxCell id="mbKQi5RCTEhMUGyDIt2u-17" value="git commit" style="edgeLabel;html=1;align=center;verticalAlign=middle;resizable=0;points=[];fontColor=#FFFFFF;labelBackgroundColor=#1A3300;labelPosition=center;verticalLabelPosition=middle;" vertex="1" connectable="0" parent="mbKQi5RCTEhMUGyDIt2u-16">
          <mxGeometry relative="1" as="geometry">
            <mxPoint as="offset" />
          </mxGeometry>
        </mxCell>
        <mxCell id="mbKQi5RCTEhMUGyDIt2u-18" value="" style="shape=flexArrow;endArrow=classic;html=1;rounded=0;fillColor=#1A3300;width=22.5;endSize=7.25;strokeColor=none;labelBackgroundColor=#372108;entryX=0.5;entryY=0.174;entryDx=0;entryDy=0;entryPerimeter=0;" edge="1" parent="mbKQi5RCTEhMUGyDIt2u-28" target="mbKQi5RCTEhMUGyDIt2u-4">
          <mxGeometry width="50" height="50" relative="1" as="geometry">
            <mxPoint x="240" as="sourcePoint" />
            <mxPoint x="320" as="targetPoint" />
          </mxGeometry>
        </mxCell>
        <mxCell id="mbKQi5RCTEhMUGyDIt2u-19" value="git push" style="edgeLabel;html=1;align=center;verticalAlign=middle;resizable=0;points=[];fontColor=#FFFFFF;labelBackgroundColor=#1A3300;labelPosition=center;verticalLabelPosition=middle;" vertex="1" connectable="0" parent="mbKQi5RCTEhMUGyDIt2u-18">
          <mxGeometry relative="1" as="geometry">
            <mxPoint as="offset" />
          </mxGeometry>
        </mxCell>
        <mxCell id="mbKQi5RCTEhMUGyDIt2u-30" value="" style="shape=flexArrow;endArrow=classic;html=1;rounded=0;fillColor=#1A3300;width=22.5;endSize=7.25;strokeColor=none;labelBackgroundColor=#372108;exitX=0;exitY=0.25;exitDx=0;exitDy=0;entryX=0.5;entryY=0.391;entryDx=0;entryDy=0;entryPerimeter=0;" edge="1" parent="1" target="mbKQi5RCTEhMUGyDIt2u-1">
          <mxGeometry width="50" height="50" relative="1" as="geometry">
            <mxPoint x="320" y="170" as="sourcePoint" />
            <mxPoint x="200" y="170" as="targetPoint" />
          </mxGeometry>
        </mxCell>
        <mxCell id="mbKQi5RCTEhMUGyDIt2u-31" value="git merge" style="edgeLabel;html=1;align=center;verticalAlign=middle;resizable=0;points=[];fontColor=#FFFFFF;labelBackgroundColor=#1A3300;labelPosition=center;verticalLabelPosition=middle;" vertex="1" connectable="0" parent="mbKQi5RCTEhMUGyDIt2u-30">
          <mxGeometry relative="1" as="geometry">
            <mxPoint as="offset" />
          </mxGeometry>
        </mxCell>
        <mxCell id="mbKQi5RCTEhMUGyDIt2u-32" value="" style="shape=flexArrow;endArrow=classic;html=1;rounded=0;fillColor=#1A3300;width=22.5;endSize=7.25;strokeColor=none;labelBackgroundColor=#372108;" edge="1" parent="1">
          <mxGeometry width="50" height="50" relative="1" as="geometry">
            <mxPoint x="480" y="220" as="sourcePoint" />
            <mxPoint x="120" y="220" as="targetPoint" />
          </mxGeometry>
        </mxCell>
        <mxCell id="mbKQi5RCTEhMUGyDIt2u-33" value="git pull" style="edgeLabel;html=1;align=center;verticalAlign=middle;resizable=0;points=[];fontColor=#FFFFFF;labelBackgroundColor=#1A3300;labelPosition=center;verticalLabelPosition=middle;" vertex="1" connectable="0" parent="mbKQi5RCTEhMUGyDIt2u-32">
          <mxGeometry relative="1" as="geometry">
            <mxPoint as="offset" />
          </mxGeometry>
        </mxCell>
        <mxCell id="mbKQi5RCTEhMUGyDIt2u-34" value="" style="shape=flexArrow;endArrow=classic;html=1;rounded=0;fillColor=#1A3300;width=22.5;endSize=7.25;strokeColor=none;labelBackgroundColor=#372108;exitX=0;exitY=0.25;exitDx=0;exitDy=0;" edge="1" parent="1">
          <mxGeometry width="50" height="50" relative="1" as="geometry">
            <mxPoint x="480" y="270" as="sourcePoint" />
            <mxPoint x="360" y="270" as="targetPoint" />
          </mxGeometry>
        </mxCell>
        <mxCell id="mbKQi5RCTEhMUGyDIt2u-35" value="git clone" style="edgeLabel;html=1;align=center;verticalAlign=middle;resizable=0;points=[];fontColor=#FFFFFF;labelBackgroundColor=#1A3300;labelPosition=center;verticalLabelPosition=middle;" vertex="1" connectable="0" parent="mbKQi5RCTEhMUGyDIt2u-34">
          <mxGeometry relative="1" as="geometry">
            <mxPoint as="offset" />
          </mxGeometry>
        </mxCell>
        <mxCell id="mbKQi5RCTEhMUGyDIt2u-36" value="" style="shape=flexArrow;endArrow=classic;html=1;rounded=0;fillColor=#1A3300;width=22.5;endSize=7.25;strokeColor=none;labelBackgroundColor=#372108;exitX=0;exitY=0.25;exitDx=0;exitDy=0;entryX=0.5;entryY=0.257;entryDx=0;entryDy=0;entryPerimeter=0;" edge="1" parent="1">
          <mxGeometry width="50" height="50" relative="1" as="geometry">
            <mxPoint x="320" y="270" as="sourcePoint" />
            <mxPoint x="120" y="270" as="targetPoint" />
          </mxGeometry>
        </mxCell>
        <mxCell id="mbKQi5RCTEhMUGyDIt2u-37" value="git checkout" style="edgeLabel;html=1;align=center;verticalAlign=middle;resizable=0;points=[];fontColor=#FFFFFF;labelBackgroundColor=#1A3300;labelPosition=center;verticalLabelPosition=middle;" vertex="1" connectable="0" parent="mbKQi5RCTEhMUGyDIt2u-36">
          <mxGeometry relative="1" as="geometry">
            <mxPoint as="offset" />
          </mxGeometry>
        </mxCell>
        <mxCell id="mbKQi5RCTEhMUGyDIt2u-40" value="" style="shape=flexArrow;endArrow=classic;html=1;rounded=0;fillColor=#1A3300;width=22.5;endSize=7.25;strokeColor=none;labelBackgroundColor=#372108;exitX=0;exitY=0.25;exitDx=0;exitDy=0;" edge="1" parent="1">
          <mxGeometry width="50" height="50" relative="1" as="geometry">
            <mxPoint x="480" y="170" as="sourcePoint" />
            <mxPoint x="360" y="170" as="targetPoint" />
          </mxGeometry>
        </mxCell>
        <mxCell id="mbKQi5RCTEhMUGyDIt2u-41" value="git fetch" style="edgeLabel;html=1;align=center;verticalAlign=middle;resizable=0;points=[];fontColor=#FFFFFF;labelBackgroundColor=#1A3300;labelPosition=center;verticalLabelPosition=middle;" vertex="1" connectable="0" parent="mbKQi5RCTEhMUGyDIt2u-40">
          <mxGeometry relative="1" as="geometry">
            <mxPoint as="offset" />
          </mxGeometry>
        </mxCell>
        <mxCell id="mbKQi5RCTEhMUGyDIt2u-43" value="Working&lt;br&gt;Directory" style="text;html=1;align=center;verticalAlign=middle;resizable=0;points=[];autosize=1;fontColor=#FFFFFF;" vertex="1" parent="1">
          <mxGeometry x="85" y="35" width="70" height="40" as="geometry" />
        </mxCell>
      </root>
    </mxGraphModel>
  </diagram>
</mxfile>
